<svg id="Layer_1" height="512" viewBox="0 0 128 128" width="512" xmlns="http://www.w3.org/2000/svg" data-name="Layer 1"><rect fill="#e5ffff" height="95.875" rx="5.096" width="76" x="26" y="13.221"/><path d="m96.9 13.221h-32.9v95.879h32.9a5.1 5.1 0 0 0 5.1-5.1v-85.682a5.1 5.1 0 0 0 -5.1-5.097z" fill="#d8f1ff"/><path d="m96.9 13.221h-65.8a5.1 5.1 0 0 0 -5.1 5.1v12.012h76v-12.015a5.1 5.1 0 0 0 -5.1-5.097z" fill="#fcbe00"/><path d="m96.9 13.221h-32.9v17.112h38v-12.015a5.1 5.1 0 0 0 -5.1-5.097z" fill="#ff8f00"/><path d="m34.25 19.152h5.25v5.25h-5.25z" fill="#e5ffff"/><path d="m54.75 20.9h-8a1.75 1.75 0 0 1 0-3.5h8a1.75 1.75 0 0 1 0 3.5z" fill="#e5ffff"/><path d="m54.75 26.152h-8a1.75 1.75 0 0 1 0-3.5h8a1.75 1.75 0 0 1 0 3.5z" fill="#e5ffff"/><path d="m93.75 20.9h-8a1.75 1.75 0 0 1 0-3.5h8a1.75 1.75 0 0 1 0 3.5z" fill="#d8f1ff"/><path d="m93.75 26.152h-8a1.75 1.75 0 0 1 0-3.5h8a1.75 1.75 0 0 1 0 3.5z" fill="#d8f1ff"/><circle cx="64" cy="72.125" fill="#fcbe00" r="25.75"/><circle cx="64" cy="72.125" fill="#56d8d3" r="20"/><path d="m82.571 79.521c-4.3-6.586-13.576-8.894-24.7-5.021-10.248 3.57-13.387-2.509-13.819-3.49-.021.371-.056.739-.056 1.115a19.993 19.993 0 0 0 38.571 7.4z" fill="#e5ffff"/><path d="m31.096 109.096h65.807v5.682h-65.807z" fill="#596c76"/><path d="m89.75 72.125a25.75 25.75 0 0 0 -25.75-25.75v51.5a25.75 25.75 0 0 0 25.75-25.75z" fill="#ff8f00"/><path d="m84 72.125a20 20 0 0 0 -20-20v40a20 20 0 0 0 20-20z" fill="#26bebe"/><path d="m64 72.95v19.175a19.993 19.993 0 0 0 18.571-12.6c-3.482-5.337-10.228-7.862-18.571-6.575z" fill="#d8f1ff"/><path d="m64 109.096h32.904v5.682h-32.904z" fill="#45595f"/><path d="m82.057 68.146h6.255a4.062 4.062 0 0 1 4.062 4.062 4.062 4.062 0 0 1 -4.062 4.062h-6.255a0 0 0 0 1 0 0v-8.124a0 0 0 0 1 0 0z" fill="#45595f"/><g fill="#530000"><path d="m96.9 11.472h-65.8a6.854 6.854 0 0 0 -6.846 6.846v85.682a6.854 6.854 0 0 0 6.846 6.847h45.733a1.75 1.75 0 0 0 0-3.5h-45.733a3.35 3.35 0 0 1 -3.35-3.347v-71.917h65.25a1.75 1.75 0 1 0 0-3.5h-65.25v-10.266a3.35 3.35 0 0 1 3.35-3.345h65.8a3.35 3.35 0 0 1 3.346 3.346v85.682a3.35 3.35 0 0 1 -3.346 3.347h-7.43a1.75 1.75 0 0 0 0 3.5h5.684v2.182h-64.054a1.75 1.75 0 0 0 0 3.5h65.8a1.75 1.75 0 0 0 1.75-1.75v-4.167a6.853 6.853 0 0 0 5.1-6.611v-85.684a6.854 6.854 0 0 0 -6.85-6.845z"/><path d="m82.917 110.847h.141a1.75 1.75 0 0 0 0-3.5h-.141a1.75 1.75 0 0 0 0 3.5z"/><path d="m34.25 17.4a1.75 1.75 0 0 0 -1.75 1.75v5.25a1.75 1.75 0 0 0 1.75 1.75h5.25a1.75 1.75 0 0 0 1.75-1.75v-5.25a1.75 1.75 0 0 0 -1.75-1.75zm3.5 5.25h-1.75v-1.75h1.75z"/><path d="m54.75 17.4h-8a1.75 1.75 0 0 0 0 3.5h8a1.75 1.75 0 0 0 0-3.5z"/><path d="m54.75 22.652h-8a1.75 1.75 0 0 0 0 3.5h8a1.75 1.75 0 0 0 0-3.5z"/><path d="m85.75 20.9h8a1.75 1.75 0 0 0 0-3.5h-8a1.75 1.75 0 0 0 0 3.5z"/><path d="m85.75 26.152h8a1.75 1.75 0 0 0 0-3.5h-8a1.75 1.75 0 0 0 0 3.5z"/><path d="m48.491 53.318a1.739 1.739 0 0 0 1.05-.352l.341-.253a1.75 1.75 0 1 0 -2.072-2.82l-.373.276a1.75 1.75 0 0 0 1.053 3.148z"/><path d="m43.111 54.238a27.5 27.5 0 1 0 46.354 28.286 1.75 1.75 0 1 0 -3.239-1.324 24 24 0 1 1 -40.457-24.684 1.75 1.75 0 1 0 -2.657-2.277z"/><path d="m64 93.875a21.819 21.819 0 0 0 20.928-15.854h3.385a5.81 5.81 0 0 0 2.719-10.946 27.654 27.654 0 0 0 -27.032-22.45 27.329 27.329 0 0 0 -10.7 2.162 1.75 1.75 0 1 0 1.363 3.223 23.868 23.868 0 0 1 9.337-1.885 24.15 24.15 0 0 1 23.31 18.275h-5.253a1.75 1.75 0 0 0 -1.75 1.75v8.125a1.746 1.746 0 0 0 1.011 1.581 18.244 18.244 0 0 1 -35.2-2.067 11 11 0 0 0 5.919 1.576 19.556 19.556 0 0 0 6.412-1.209c6.446-2.245 12.5-2.373 17.06-.357a1.75 1.75 0 1 0 1.415-3.2c-5.369-2.374-12.339-2.284-19.626.254-7.927 2.76-10.725-.836-11.474-2.211a18.242 18.242 0 0 1 33.784-7.974 1.75 1.75 0 0 0 2.992-1.823 21.751 21.751 0 1 0 -18.6 33.03zm24.313-23.975a2.313 2.313 0 0 1 0 4.625h-4.113a1.738 1.738 0 0 0 -.256-.08c-.046-.009-.092-.008-.138-.014v-4.531z"/></g></svg>